<?xml version="1.0" encoding="UTF-8" standalone="no"?><!DOCTYPE svg PUBLIC "-//W3C//DTD SVG 1.1//EN" "http://www.w3.org/Graphics/SVG/1.1/DTD/svg11.dtd"><svg width="1728px" height="1117px" version="1.1" xmlns="http://www.w3.org/2000/svg" xmlns:xlink="http://www.w3.org/1999/xlink" xml:space="preserve" xmlns:serif="http://www.serif.com/" style="fill-rule:evenodd;clip-rule:evenodd;"><g transform="matrix(1,0,0,1,-8.99973,-26.21)"><g><path d="M39.255,61.43c-4.498,0.828 2.685,7.434 3.71,8.68c10.247,12.455 21.555,24.906 35.239,33.935c0.759,0.5 10.457,5.513 3.478,3.304c-3.521,-1.115 -5.726,-4.047 -7.999,-6.608" style="fill:none;stroke:#303037;stroke-width:7px;"/><path d="M109.155,309.39c1.664,-10.057 3.414,-23.236 6.608,-33.151c3.781,-11.739 10.79,-20.728 18.779,-30.015c6.251,-7.267 12.534,-15.574 20.286,-21.503c2.781,-2.127 2.189,0.835 1.681,2.744c-1.488,5.589 -2.966,11.019 -1.797,16.855c4.213,21.032 38.674,15.19 53.555,9.408c10.336,-4.016 16.536,-7.134 23.996,-14.895" style="fill:none;stroke:#303037;stroke-width:7px;"/><path d="M294.859,163.235c14.027,-8.952 28.219,-17.515 43.355,-24.639c4.158,-1.958 8.605,-4.108 13.099,-5.32c3.916,-1.056 5.182,2.048 7.65,4.48c11.606,11.437 31.476,13.442 47.18,12.599c23.535,-1.263 46.981,-7.993 65.031,-22.399" style="fill:none;stroke:#303037;stroke-width:7px;"/><path d="M664.681,151.956c0,25.157 2.093,51.889 -2.087,76.83c-0.844,5.039 -0.106,6.932 -5.216,4.816" style="fill:none;stroke:#303037;stroke-width:7px;"/><path d="M417.967,289.231c1.824,-3.525 3.813,-4.663 7.709,-6.328c10.388,-4.439 21.687,-7.365 32.747,-9.687c15.802,-3.318 36.969,-8.317 53.381,-4.088c7.254,1.869 -4.793,11.477 -6.723,13.551c-4.038,4.342 -14.912,14.936 -8.056,21.56c5.519,5.332 15.119,7.597 22.256,9.295c11.125,2.647 22.618,4 34.081,3.248c16.894,-1.107 31.122,-8.61 47.122,-12.711c5.016,-1.286 4.52,1.357 7.592,4.871c8.385,9.594 22.333,9.059 34.197,10.528" style="fill:none;stroke:#303037;stroke-width:7px;"/><path d="M914.57,134.004c-0.347,-5.524 -4.496,-6.853 -9.506,-8.96c-15.336,-6.449 -32.059,-10.593 -48.802,-11.087c-5.513,-0.163 -35.157,-2.717 -37.443,4.815c-2.907,9.583 13.271,25.531 18.316,31.583c13.769,16.518 29.88,31.844 41.557,49.895c7.078,10.941 10.049,23.871 -2.608,32.087c-14.066,9.131 -32.934,13.587 -49.498,15.903c-10.358,1.449 -4.468,-0.465 1.391,-2.352" style="fill:none;stroke:#303037;stroke-width:7px;"/><path d="M922.456,1082.13c5.013,-2.35 4.729,-6.7 4.854,-12.13c0.381,-16.63 -1.89,-33.71 -7.566,-49.47c-1.868,-5.19 -10.355,-33.709 -18.2,-33.075c-9.982,0.806 -18.893,21.705 -22.675,28.615c-10.324,18.86 -18.681,39.47 -31.197,56.95c-7.587,10.59 -18.529,18.09 -30.811,9.33c-13.65,-9.74 -24.71,-25.67 -32.935,-40.23c-5.143,-9.11 -1.204,-4.33 2.698,0.43" style="fill:none;stroke:#303037;stroke-width:7px;"/><path d="M1083.58,173.315c-0.33,-12.501 2.13,-25.658 8.35,-36.847c1.1,-1.99 4.36,-2.605 6.26,-3.36c6.55,-2.611 12.9,-5.737 19.47,-8.288c16.9,-6.554 33.73,-2.637 48.92,6.16c9.98,5.78 17.69,14.047 27.01,20.607c9.64,6.789 18.59,4.91 29.79,5.6" style="fill:none;stroke:#303037;stroke-width:7px;"/><path d="M1436.21,186.418c12.39,9.41 24.76,18.571 35.36,29.903c6.05,6.476 11.93,13.096 18.08,19.488c2.12,2.202 9.11,7.247 9.51,10.639c0.26,2.24 -8.38,4.289 -9.74,4.816c-4.54,1.762 -2.36,1.748 1.27,1.68c13.31,-0.247 26.57,-2.038 39.76,-3.584c9.68,-1.134 20.76,-1.228 30.03,-4.592c7.4,-2.685 9.66,-6.798 14.49,-11.983" style="fill:none;stroke:#303037;stroke-width:7px;"/><path d="M1460.21,103.765c-8.62,-17.026 -15.81,-34.495 -21.16,-52.75c-0.28,-0.968 -2.29,-5.757 -1.51,-6.888c1.25,-1.804 8.61,6.747 9.1,7.224" style="fill:none;stroke:#303037;stroke-width:7px;"/><path d="M470.131,37.239c-1.681,-0 3.362,-0 5.043,-0c13.369,-0 26.16,2.526 38.833,6.608c8.023,2.584 15.34,6.286 23.126,9.295c4.394,1.699 5.384,-2.563 7.071,-5.823" style="fill:none;stroke:#303037;stroke-width:7px;"/><path d="M685.047,116.869c16.404,-5.389 31.378,-13.184 46.774,-20.832c14.497,-7.201 29.922,-17.249 45.963,-21.055c2.493,-0.592 0.177,1.397 -0.406,1.96c-5.509,5.323 -11.983,9.631 -18.373,13.887c-2.867,1.91 -11.665,6.769 -8.231,6.216c10.982,-1.768 22.986,-9.811 32.342,-15.007c10.948,-6.081 32.64,-15.991 35.298,-30.015c3.112,-16.42 -35.312,-18.738 -44.572,-19.6c-28.995,-2.698 -58.038,-0.575 -86.998,-2.352c-16.247,-0.996 31.332,-8.634 47.238,-11.983" style="fill:none;stroke:#303037;stroke-width:7px;"/><path d="M357.457,7l0,14.112" style="fill:none;stroke:#303037;stroke-width:7px;"/><path d="M262.518,44.295c-29.684,5.13 -59.242,10.898 -88.795,16.687c-8.28,1.622 -16.543,3.348 -24.865,4.76c-7.349,1.248 -0.875,0.735 1.797,0.672c15.643,-0.368 33.279,-4.263 48.686,-0.84c9.034,2.007 16.194,10.435 23.01,16.016c6.497,5.319 12.924,10.525 18.142,17.079c5.2,6.531 8.352,10.696 17.504,10.696c12.78,-0 21.509,-5.976 30.603,-13.664" style="fill:none;stroke:#303037;stroke-width:7px;"/><path d="M340.764,407.163c-29.776,14.247 -57.854,30.082 -83.521,50.567c-3.18,2.538 -13.257,7.964 -6.201,9.911" style="fill:none;stroke:#303037;stroke-width:7px;"/><path d="M347.024,487.801c19.526,5.365 39.317,9.262 59.003,13.999c14.982,3.606 35.23,6.676 46.31,18.368c5.919,6.244 10.839,14.774 10.839,23.463c0,11.316 -8.172,17.898 -14.954,25.815" style="fill:none;stroke:#303037;stroke-width:7px;"/><path d="M375.192,596.661c-31.198,2.018 -61.738,3.582 -92.504,-3.024c-5.068,-1.088 -25.619,-4.416 -25.619,-12.879c0,-3.546 6.389,-8.022 8.115,-9.296c9.119,-6.734 19.246,-12.667 29.212,-18.143c8.158,-4.483 16.681,-8.701 25.56,-11.704c3.783,-1.279 -3.413,-0.224 -3.419,-0.224c-13.741,1.226 -25.728,5.939 -38.37,-0.168" style="fill:none;stroke:#303037;stroke-width:7px;"/><path d="M114.372,511.992c-13.374,-0.948 -26.697,-1.877 -40.109,-2.016c-1.934,-0.02 -27.005,1.18 -18.257,-3.584c16.531,-9.002 33.871,-4.311 51.063,-0.448" style="fill:none;stroke:#303037;stroke-width:7px;"/><path d="M133.151,599.685c-3.386,18.93 -7.188,38.127 -5.854,57.454c1.412,20.472 10.735,33.021 24.633,47.375" style="fill:none;stroke:#303037;stroke-width:7px;"/><path d="M203.051,730.721c23.985,-20.245 49.074,-42.245 79.289,-53.31c0.391,-0.143 12.199,-5.531 13.331,-2.128c2.613,7.855 -1.48,16.946 1.797,24.975c7.437,18.22 26.119,23.359 43.296,29.455" style="fill:none;stroke:#303037;stroke-width:7px;"/><path d="M388.755,842.606c12.403,-4.529 24.763,-9.16 37.152,-13.72c7.507,-2.763 15.193,-5.982 23.243,-7c7.964,-1.007 18.653,-1.467 21.097,7.728c2.444,9.196 -0.749,19.058 1.623,28.223c3.092,11.949 13.887,15.932 24.343,20.047" style="fill:none;stroke:#303037;stroke-width:7px;"/><path d="M561.94,906.107c21.325,-4.977 42.011,-12.941 63.466,-17.135c5.094,-0.996 15.07,-3.882 19.069,1.68c3.96,5.507 3.479,14.424 6.26,20.607c11.863,26.376 41.896,42.869 70.827,40.207" style="fill:none;stroke:#303037;stroke-width:7px;"/><path d="M761.433,974.426c42.26,-15.39 79.14,-41.62 116.925,-65.518" style="fill:none;stroke:#303037;stroke-width:7px;"/><path d="M968.82,857.725c5.324,-14.89 12.01,-28.894 19.475,-42.895c0.382,-0.715 5.438,-11.657 6.608,-10.527" style="fill:none;stroke:#303037;stroke-width:7px;"/><path d="M1119.38,784.088c-13.65,-5.751 -26.16,-10.625 -41.09,-12.543c-25.5,-3.275 -51.6,-3.001 -77.27,-3.36c-20.009,-0.281 -40.027,-0.224 -60.042,-0.224" style="fill:none;stroke:#303037;stroke-width:7px;"/><path d="M861.362,780.111c-12.64,-8.711 -26.384,-20.664 -42.079,-23.743c-10.293,-2.019 -20.607,-1.217 -30.951,-0.448" style="fill:none;stroke:#303037;stroke-width:7px;"/><path d="M730.952,770.032c-11.453,3.803 -33.881,9.995 -37.442,23.631c-2.807,10.747 27.731,14.132 34.37,16.631c1.344,0.506 8.868,2.665 8.868,5.04c0,2.584 -12.822,3.428 -13.563,3.528c-42.221,5.684 -86.255,-2.08 -127.86,-8.512" style="fill:none;stroke:#303037;stroke-width:7px;"/><path d="M133.151,919.211c-3.803,6.7 -7.946,13.219 -11.824,19.879c-3.049,5.237 -10.447,14.631 -8.694,21.112c2.333,8.627 27.392,9.513 33.791,10.247c19.25,2.21 39.367,1.273 58.25,5.88c5.987,1.461 15.003,3.239 18.779,8.624c1.786,2.548 2.131,5.846 3.883,8.456c5.172,7.701 18.202,8.641 26.604,9.571c16.898,1.88 34.357,1.25 51.352,1.91" style="fill:none;stroke:#303037;stroke-width:7px;"/><path d="M411,957.155c18.494,25.545 46.098,44.895 69.964,65.555c11.46,9.91 23.155,19.64 34.151,30.04c3.853,3.65 10.765,8.89 8.726,14.92c-1.015,3 -3.639,4.69 -6.321,6.15c-6.018,3.29 -8.481,7.88 -9.511,14.59c-2.479,16.13 1.246,31.26 8.682,45.68c6.407,12.43 14.455,19.56 25.158,28.33" style="fill:none;stroke:#303037;stroke-width:7px;"/><path d="M1003.25,1009.93c51.51,-21.482 98.97,-51.362 152.32,-68.544" style="fill:none;stroke:#303037;stroke-width:7px;"/><path d="M1233.89,949.167c25.74,-2.893 51.06,-5.86 75.76,-13.775c12.19,-3.91 25.27,-8.312 35.41,-16.24c5.23,-4.086 12.48,-8.851 15.48,-14.783c7.89,-15.661 -9.45,-31.314 -20.17,-40.263c-15.61,-13.019 -33.14,-21.557 -51.99,-29.287c-7.01,-2.871 -14.11,-5.499 -21.1,-8.4c-1.84,-0.763 -9.22,-2.623 -4.35,-4.536c15.28,-6.005 32.09,-9.265 47.82,-14.055c9.13,-2.783 18.48,-5.295 27.47,-8.512c6.2,-2.218 1.82,-0.823 3.13,-3.36" style="fill:none;stroke:#303037;stroke-width:7px;"/><path d="M1152.44,727.697c20.33,-12.214 44.39,-13.429 66.83,-20.719c8.73,-2.84 17.64,-6.572 26.72,-8.288c3.68,-0.697 -4.62,5.733 -6.73,8.736c-9.4,13.394 17.51,3.386 22.61,0.448c13.64,-7.869 26.35,-17.292 39.76,-25.535" style="fill:none;stroke:#303037;stroke-width:7px;"/><path d="M1253.64,539.207c-1.44,-0.119 -7.35,0.137 -4,-2.856c6.39,-5.709 16.82,-8.544 24.75,-11.423c6.11,-2.221 13.15,-7.329 12.4,0.952c-0.74,8.232 -4.28,19.74 5.68,24.135c16.55,7.299 37.06,3.979 54.02,0.28" style="fill:none;stroke:#303037;stroke-width:7px;"/><path d="M909.353,370.876c0.254,-6.246 2.359,-9.791 6.434,-14.727c6.777,-8.21 15.202,-18.855 25.097,-23.799c2.003,-1.002 4.535,-0.964 6.723,-0.672c17.12,2.281 33.405,6.76 50.889,7.615c18.214,0.891 36.484,0.146 54.714,0.336c7.67,0.081 11.11,2.272 17.62,5.6c10.57,5.409 22.87,6.87 34.66,7.28c7.12,0.248 14.05,0.176 19.82,-3.808" style="fill:none;stroke:#303037;stroke-width:7px;"/><path d="M1437.25,402.124c-0.66,-6.524 -1.93,-13.399 -0.58,-19.936c1.79,-8.635 6.55,-16.891 9.1,-25.367c0.46,-1.519 4.09,-10.314 1.57,-12.488c-1.88,-1.621 -7.02,-0.322 -8.35,1.456c-8.47,11.343 21.73,12.67 26.49,12.6c21.46,-0.314 43.13,-5.279 64.63,-6.664" style="fill:none;stroke:#303037;stroke-width:7px;"/><path d="M1548.89,548.279c12.96,-7.241 27.53,-17.501 42.65,-19.936c4.99,-0.802 3.17,5.24 3.25,8.288c0.37,14.664 6.05,23.815 19.47,31.359c7.09,3.984 14.34,4.48 22.26,4.48" style="fill:none;stroke:#303037;stroke-width:7px;"/><path d="M1602.81,1047c-7.61,12.76 -15.1,28.93 -26.97,38.6c-3.92,3.18 -5.37,-2.96 -6.96,-5.56c-7.66,-12.51 -17.15,-17.6 -32.54,-17.42c-8.13,0.09 -14.66,3.29 -21.52,7.25" style="fill:none;stroke:#303037;stroke-width:7px;"/><path d="M1508.2,640.004c-8.78,-7.478 -17.21,-14.675 -29.79,-13.216c-9.17,1.063 -19.45,6.816 -24,14.784c-4.91,8.602 0.65,19.103 7.42,25.087c12.4,10.961 31.79,13.177 47.64,15.344c5.83,0.795 14.06,2.355 20.17,1.12c1.18,-0.238 1.33,-1.398 2.67,-1.12c7.6,1.573 14.9,4.851 22.49,6.607c30.24,6.999 61.4,9.046 92.15,12.88" style="fill:none;stroke:#303037;stroke-width:7px;"/><path d="M1452.9,870.829c12.89,-3.718 23.54,-10.625 34.32,-18.312c8.27,-5.9 22.33,-13.683 27.82,-22.679c11.18,-18.34 -35.53,-14.685 -42.66,-11.872c-10.59,4.18 0.8,15.252 5.56,18.76c14.9,10.979 33.2,17.765 49.96,25.591c10.61,4.949 20.08,10.64 32.4,9.52c17.47,-1.588 32.84,-10.49 48.05,-18.144" style="fill:none;stroke:#303037;stroke-width:7px;"/><path d="M1578.1,948.442c-11.52,-1.882 -46.34,-4.928 -34.66,-4.928c18.82,0 37.95,2.745 56.68,4.256c18.87,1.522 38.15,2.219 56.69,6.216c1.77,0.381 16.01,2.593 12.52,6.888c-5.61,6.885 -14.08,12.27 -20.93,17.919c-5.5,4.537 -13.7,9.234 -17.91,15.008c-1.58,2.176 8.93,8.209 10.2,9.069" style="fill:none;stroke:#303037;stroke-width:7px;"/><path d="M1430.04,1038.15c-21.87,1.52 -43.45,4.67 -65.26,6.44c-21.8,1.77 -46.79,0.29 -67.64,7.62c-8.04,2.82 11.2,21.11 14.2,23.35c16.37,12.24 36.79,22.29 56.8,27.66c1.69,0.46 2.24,0.41 -0.18,0.51c-8.9,0.36 -17.8,0.77 -26.72,0.89c-21.99,0.31 -43.29,-0.02 -62.54,-11.7c-13.17,-7.99 -17.57,-16.38 -17.67,-30.91c-0.11,-14.87 -0.01,-29.33 2.08,-44.02" style="fill:none;stroke:#303037;stroke-width:7px;"/><path d="M386.668,1055.29c-18.542,-9.36 -36.192,-17.22 -57.206,-19.49c-27.833,-3 -55.359,-0.21 -82.478,6.16c-8.031,1.89 -3.033,1.04 1.391,0c1.1,-0.26 7.489,-2.69 8.463,-1.12c1.527,2.46 -3.808,8.68 -4.753,10.41" style="fill:none;stroke:#303037;stroke-width:7px;"/><path d="M282.34,956.506c-11.7,-6.758 -22.864,-14.631 -34.66,-21.167c-2.898,-1.606 -5.902,-2.5 -9.158,-3.024" style="fill:none;stroke:#303037;stroke-width:7px;"/><path d="M140.454,789.183c2.041,-6.193 4.473,-22.735 11.881,-26.039c3.215,-1.434 3.717,27.933 3.826,30.295c0.295,6.425 0.294,13.763 2.492,19.935c2.835,7.961 11.288,10.395 19.011,11.984c11.718,2.411 20.695,-0.24 31.646,-3.92" style="fill:none;stroke:#303037;stroke-width:7px;"/><path d="M23.606,827.486c10.983,-11.264 44.898,-44.003 34.892,-31.919c-7.067,8.535 -21.33,19.224 -19.591,31.695c3.322,23.815 40.918,28.534 59.583,35.839c8.751,3.425 7.672,8.274 5.449,15.791" style="fill:none;stroke:#303037;stroke-width:7px;"/><path d="M9,1070.41c1.901,0 4.073,0.3 5.912,-0.23c4.02,-1.15 8.576,-5.13 11.592,-7.39c9.21,-6.89 18.122,-14.17 27.009,-21.45c5.25,-4.29 17.303,-11.17 20.344,-17.64c2.507,-5.32 -11.402,4.68 -15.765,8.74c-18.968,17.66 36.249,20.35 43.876,20.61c13.369,0.46 35.505,4.9 41.616,-9.86" style="fill:none;stroke:#303037;stroke-width:7px;"/><path d="M1241.12,309.39c13.65,-0.659 27.55,-6.173 40.22,-10.527c3.23,-1.111 12.86,-3.104 9.51,-3.808c-7.09,-1.488 -15.71,-0.763 -22.72,0.336c-7.16,1.12 -43.54,13.95 -20.17,18.591c14.64,2.907 30.62,1.962 45.44,2.24c16.42,0.308 32.57,1.187 48.92,2.24" style="fill:none;stroke:#303037;stroke-width:7px;"/><path d="M1322.49,148.116c13.74,-5.938 11.71,-5.03 24.69,-10.752c4.64,-2.044 11.15,-6.01 16.47,-6.832c5.47,-0.847 -9.84,6.935 -10.84,12.208c-1.74,9.109 12.49,15.96 19.3,18.143c13.4,4.301 26.87,2.17 40.11,-0.672" style="fill:none;stroke:#303037;stroke-width:7px;"/><path d="M1605.22,112.837c10.87,-9.133 22.44,-18.19 35.01,-25.088c3.38,-1.852 7.5,-4.378 11.36,-5.263c1.82,-0.418 -6.04,7.706 -6.26,7.951c-10.15,11.261 -11.77,25.133 -4.87,38.583c6.39,12.45 18.19,17.423 30.49,23.127" style="fill:none;stroke:#303037;stroke-width:7px;"/><path d="M1683.47,245.888c6.68,4.202 13.16,8.255 16,15.904c4.38,11.815 1.2,24.741 -4.29,35.615c-3.66,7.235 -8.15,8.618 1.39,8.96c11.47,0.41 -6.5,26.251 -9.57,30.687c-6.22,9.021 8.06,6.607 14.21,6.607" style="fill:none;stroke:#303037;stroke-width:7px;"/><path d="M1694.95,497.88c6.71,-4.397 13.38,-8.899 20.34,-12.935c0.11,-0.062 4.55,-2.961 2.67,-0.28c-6.22,8.832 -15.13,14.662 -17.91,25.759c-2.85,11.343 14.98,17.087 23.3,19.487c3.77,1.091 8.05,1.55 11.7,3.024c3.68,1.482 1.12,5.679 0.58,8.288" style="fill:none;stroke:#303037;stroke-width:7px;"/><path d="M1414.3,489.817c-7.32,2.852 -14.58,5.735 -21.73,8.959c-4.09,1.842 9,0.927 13.5,0.672c19.58,-1.109 42.54,-7.08 61.44,-0.56" style="fill:none;stroke:#303037;stroke-width:7px;"/><path d="M741.385,346.685c25.5,-7.812 49.688,-22.816 72.914,-35.503c3.068,-1.676 12.085,-6.8 9.505,-4.479c-5.369,4.829 -10.462,9.772 -15.649,14.783" style="fill:none;stroke:#303037;stroke-width:7px;"/><path d="M886.121,37.956c20.411,-6.554 40.841,-14.268 63.391,-18.936c2.128,-0.44 -3.516,1.514 -5.447,2.147c-2.55,0.835 -15.144,3.672 -9.097,5.91c5.002,1.851 12.412,2.03 18.252,2.293c9.575,0.431 19.249,0.546 28.856,0.618c13.435,0.101 26.484,0.134 39.634,1.617" style="fill:none;stroke:#303037;stroke-width:7px;"/></g></g></svg>