<?xml version="1.0" encoding="UTF-8" standalone="no"?>
<!DOCTYPE svg PUBLIC "-//W3C//DTD SVG 1.1//EN" "http://www.w3.org/Graphics/SVG/1.1/DTD/svg11.dtd">
<svg width="2rem" height="2rem" viewBox="0 0 605 313" version="1.1" xmlns="http://www.w3.org/2000/svg" xmlns:xlink="http://www.w3.org/1999/xlink" xml:space="preserve" xmlns:serif="http://www.serif.com/" style="fill-rule:evenodd;clip-rule:evenodd;stroke-linejoin:round;stroke-miterlimit:2;">
    <rect id="Monogram" x="0" y="0" width="604.167" height="312.5" style="fill:none;"/>
    <g id="Monogram1" serif:id="Monogram">
        <g id="Dark" transform="matrix(4.16667,0,0,4.16667,0,0)">
            <path id="M" d="M90.948,2.097l24.469,0l-0,8.812l-8.531,-0l0,53.016l8.531,0l-0,8.812l-26.578,-0l-0,-8.812l8.344,0l-0,-53.016l-24.282,62.578l-2.109,-0l-24.094,-62.578l0,53.016l7.781,0l0,8.812l-25.078,-0l-0,-8.812l8.578,0l0,-53.016l-8.578,-0l-0,-8.812l24.235,0l18.609,48.375l18.703,-48.375Z"/>
            <path id="lbracket" d="M3.001,72.71l-0,-70.613l24,0l-0,8.812l-15.187,-0l0,52.988l15.187,0l-0,8.813l-24,0Z"/>
            <path id="rbracket" d="M133.149,10.909l-15.188,-0l-0,-8.812l24,0l-0,70.613l-24,0l-0,-8.813l15.188,0l0,-52.988Z"/>
        </g>
    </g>
</svg>
